<svg xmlns:xlink="http://www.w3.org/1999/xlink" width="900" height="474" viewBox="0 0 900 474" fill="none" xmlns="http://www.w3.org/2000/svg"><path d="M287.776 356.314C283.341 362.553 275.801 366.563 281.124 375.921C279.793 375.921 278.906 375.475 277.575 375.475C277.132 372.802 276.688 369.682 276.688 367.009C277.132 364.335 278.019 361.661 279.35 357.205C268.705 362.998 266.931 367.9 270.479 376.812C272.697 382.16 270.479 388.844 263.826 393.746C258.06 397.756 252.738 401.321 251.851 409.342C251.851 410.234 250.964 411.125 250.521 411.57C233.223 426.276 218.144 444.1 196.854 453.904C188.871 457.469 179.114 459.697 172.904 465.044C168.026 469.501 162.703 469.946 157.825 472.62C154.276 474.402 151.172 475.294 149.398 469.946C148.067 465.936 145.406 466.381 142.301 469.501C140.527 471.283 136.979 472.62 134.318 473.066C124.56 473.066 114.359 473.957 105.932 467.273C105.489 466.827 104.602 466.381 104.158 466.827C91.2962 470.392 81.5387 461.48 70.4507 458.806C58.9191 456.132 48.2746 450.339 37.1865 445.437C26.9855 440.981 17.2281 435.634 7.02705 431.623C1.26126 428.949 -0.956345 425.83 0.374221 419.591C7.91409 386.17 24.7679 358.542 51.3793 337.598C83.7564 312.198 119.238 292.145 156.937 276.548C189.315 263.18 222.579 252.039 255.843 240.453C270.479 235.552 285.115 231.541 300.195 227.976C313.501 224.857 322.815 217.727 328.58 205.25C336.564 188.762 344.547 172.274 352.531 156.232C352.974 155.786 353.418 154.895 352.974 154.449C349.426 149.548 353.418 144.646 353.861 140.19C353.861 139.744 353.418 139.298 352.531 138.407C351.2 138.853 349.87 139.744 348.983 140.635C320.154 164.698 291.768 188.762 262.939 212.825C255.843 218.618 248.303 224.411 240.32 228.867C222.579 238.671 206.168 229.313 203.507 209.26C201.733 194.109 206.168 181.186 214.152 168.263C224.796 151.33 232.78 133.06 248.303 120.137C256.73 113.007 265.6 107.214 274.471 100.975C277.575 98.7471 281.567 97.4103 283.341 94.7366C289.994 83.5962 300.639 83.1506 311.283 83.5962C325.476 84.0418 338.782 88.498 351.2 95.6278C368.941 105.877 377.811 104.095 389.343 87.6067C392.004 84.0418 393.778 80.4769 399.1 80.0312C400.875 80.0312 403.092 77.3575 404.866 75.5751C408.414 71.5645 411.963 71.5645 415.954 75.1295C425.712 82.7049 431.034 96.5191 425.712 108.551C417.728 125.484 408.414 141.972 399.1 158.46C397.77 161.134 394.222 162.916 391.117 163.807C384.464 166.481 383.577 168.263 386.238 174.948C387.569 178.067 386.682 182.523 385.351 185.197C381.36 192.327 376.924 199.457 372.489 206.141C372.933 206.587 372.933 207.478 373.376 207.923C380.916 205.695 388.456 204.358 395.552 201.685C406.64 198.12 417.285 194.109 427.929 190.099C437.687 186.534 438.13 184.751 439.017 174.948C440.348 162.916 442.566 151.33 444.783 139.744C445.227 137.961 446.557 136.179 447.888 134.397C448.331 139.744 446.557 145.537 452.767 149.993C451.88 143.754 451.436 138.407 458.976 137.516C449.662 124.147 452.767 110.779 464.742 100.084C469.177 96.0735 472.282 90.2804 475.386 84.4874C498.449 43.4906 534.818 18.9817 576.953 1.60262C585.38 -1.96231 592.92 1.15701 600.459 3.83071C617.757 9.62373 631.506 21.2098 643.038 35.0239C652.795 46.61 655.9 65.3259 640.376 79.5856C622.636 95.6278 604.895 111.67 584.936 124.593C554.777 145.091 522.843 162.916 491.797 182.078C487.805 184.306 484.257 186.979 480.709 189.653C475.83 193.218 475.386 198.12 477.16 203.467C478.491 207.032 479.821 210.597 481.596 214.162C485.587 223.966 491.353 226.194 500.667 221.292C512.642 215.053 523.287 206.141 535.705 201.239C563.647 189.207 585.823 168.709 610.66 152.221C653.239 123.702 697.591 97.4103 745.048 77.3575C768.554 67.554 792.504 58.6416 817.785 55.0767C840.405 51.9574 862.137 53.2942 882.539 64.4346C888.305 67.554 892.74 73.347 898.063 78.2488C898.506 78.6944 898.95 79.5856 898.95 80.0312C898.063 87.6067 896.289 94.7366 899.837 102.758C901.167 105.431 894.071 107.214 889.192 104.54C890.523 102.312 892.297 100.084 894.958 96.5191C891.41 95.6278 888.305 94.291 884.757 93.3998C875.443 66.6627 848.832 60.8697 826.212 65.7715C808.471 69.7821 790.73 76.0207 773.433 82.2593C731.298 97.4103 694.043 121.919 657.23 146.428C631.062 163.807 607.999 185.642 583.606 205.695C567.639 219.064 551.672 232.878 536.149 246.692C534.818 248.029 533.044 248.92 531.27 250.257C526.391 253.376 521.956 254.268 517.964 248.475C506.433 262.734 491.797 257.832 478.491 254.713C458.976 250.257 448.331 235.997 442.122 218.173C439.905 211.934 436.356 209.26 429.704 211.488C410.632 217.727 391.561 224.411 372.489 230.204C356.966 235.106 348.983 246.692 343.217 260.952C339.669 270.31 334.79 279.222 332.129 289.026C327.693 306.405 316.162 319.328 307.291 334.033C305.961 335.815 303.743 337.152 301.969 338.044C301.082 338.489 299.308 338.489 298.865 339.38C296.647 345.173 291.768 347.402 286.889 350.521C281.124 352.303 281.567 355.423 287.776 356.314ZM116.577 437.862C116.577 437.416 117.02 436.971 117.02 436.079C134.318 436.525 150.285 432.069 165.364 423.156C168.469 421.374 171.13 418.7 174.235 418.7C181.775 417.809 186.653 412.907 191.532 408.005C223.909 375.475 254.069 340.717 276.245 299.721C284.228 285.015 292.655 270.31 300.639 255.159C301.526 253.376 301.969 250.257 301.526 248.029C301.082 247.138 297.534 246.692 295.316 247.138C287.333 248.92 278.906 250.703 270.923 252.931C236.328 262.734 201.733 273.429 168.469 287.689C133.431 302.84 100.61 320.665 71.3377 345.619C56.258 358.542 42.5088 372.356 34.5254 391.072C30.0902 402.212 30.9772 414.244 38.5171 420.483C50.0487 429.841 62.9108 435.188 77.9906 432.514C82.8693 431.623 87.748 431.623 92.6268 432.069C101.054 433.406 109.037 435.634 116.577 437.862ZM479.821 149.102C479.378 152.667 478.934 155.341 478.934 158.014C478.491 160.242 478.491 162.916 478.491 165.59C481.152 165.144 484.257 165.59 486.474 164.253C500.224 157.123 514.86 149.993 527.722 141.526C554.777 124.147 581.831 106.768 607.999 88.0524C623.966 76.9119 626.627 61.7609 617.757 46.1643C611.547 34.5783 598.685 28.7853 588.484 32.7958C568.082 40.8169 549.011 51.5117 533.931 67.9996C528.165 74.6838 521.956 80.9225 516.634 87.6067C512.199 93.3997 509.537 100.084 505.546 105.877C502.885 110.333 499.336 114.789 497.119 119.691C494.014 126.821 491.353 134.397 490.022 141.972C489.135 148.211 486.031 149.993 479.821 149.102ZM338.338 113.007C317.492 114.789 299.308 122.365 282.011 132.168C266.487 140.635 254.512 152.667 246.529 168.263C242.094 176.73 238.989 186.088 235.441 195C234.997 196.783 234.554 198.565 234.11 200.348C235.884 199.902 238.546 200.348 239.876 199.457C253.182 190.99 266.487 182.969 278.906 174.056C299.752 158.905 320.154 143.754 340.556 127.712C343.217 125.484 345.434 121.474 345.878 117.909C346.321 117.017 340.999 114.789 338.338 113.007ZM231.893 414.244C220.805 423.156 211.047 431.178 200.846 439.199C201.29 440.09 201.733 440.981 202.177 442.318C206.168 440.981 213.265 440.535 213.708 438.307C215.482 430.732 222.135 430.286 226.57 426.721C230.119 424.493 234.11 422.265 231.893 414.244ZM309.509 270.31C299.308 276.103 294.429 283.233 289.994 291.699C289.551 292.591 289.551 294.819 290.438 296.156C290.881 296.601 293.542 297.047 293.986 296.601C299.308 290.808 304.63 285.461 309.509 279.222C310.84 277.885 309.509 274.766 309.509 270.31ZM328.137 277.885C333.903 274.32 338.338 263.18 336.12 257.832C326.806 261.843 323.702 270.31 328.137 277.885ZM258.061 388.844C257.617 388.398 256.73 387.507 256.286 387.061C247.416 387.507 242.537 394.637 246.972 402.212C250.964 397.311 254.512 392.854 258.061 388.844ZM456.315 220.846C456.315 222.183 456.758 223.074 456.758 224.411C459.419 227.531 462.081 230.65 464.742 233.324C465.629 232.432 467.846 231.095 467.403 230.65C465.629 226.639 463.411 222.629 461.194 219.064C461.194 218.173 458.089 219.955 456.315 220.846ZM331.685 251.594C330.355 250.703 329.468 250.257 328.137 249.366C325.919 252.931 324.145 256.05 321.928 259.615C322.815 260.061 324.145 260.952 325.032 261.397C327.25 258.278 329.468 255.159 331.685 251.594Z" fill="#FFFFFF"></path></svg>