<svg xmlns:xlink="http://www.w3.org/1999/xlink" xmlns="http://www.w3.org/2000/svg" viewBox="0 0 700 331" width="900"  height="425.57142857142856" ><path d="M0 299v-.2c0-17.1 12.8-31.4 30.8-31.4 11.1 0 17.6 3.8 23.7 9.6l-4.8 5c-5.1-4.8-10.9-8.3-19.1-8.3-13.5 0-23.6 10.9-23.6 24.8v.2c0 14.1 10.1 25 23.6 25 8.3 0 13.8-3.2 19.5-8.8l4.5 4.5c-6.4 6.4-13.3 10.7-24.4 10.7C13 330.2 0 316.4 0 299z M62.3 299v-.2c0-16.7 12.5-31.4 31.1-31.4 18.4 0 30.9 14.4 30.9 31.2v.2c0 16.7-12.5 31.4-31.1 31.4S62.3 315.6 62.3 299zm54.8 0v-.2c0-13.8-10.1-25-23.9-25s-23.7 11.1-23.7 24.8v.2c0 13.8 10.1 25 23.9 25s23.7-11 23.7-24.8z M138.6 268.4h6.9v54.3h34.1v6.4h-41v-60.7z M192.3 268.4h6.9v54.3h34.1v6.4h-41v-60.7z M246.6 268.4h6.9v60.7h-6.9v-60.7z M271.2 268.4h6.4l38.3 48.7v-48.7h6.7v60.7h-5.4L278 279.3v49.8h-6.7v-60.7z M337.1 299v-.2c0-16.7 12.2-31.4 30.4-31.4 10.3 0 16.5 2.9 22.6 8l-4.5 5.1c-4.6-4-9.9-6.9-18.4-6.9-13.5 0-23.1 11.4-23.1 24.8v.2c0 14.4 9.3 25.3 24 25.3 6.9 0 13.3-2.7 17.5-6.1v-15.1h-18.4v-6.1h25v24.2c-5.6 5-14.1 9.3-24.4 9.3-19 .1-30.7-13.8-30.7-31.1z M401.7 268.4h7.5l17.3 50.6 16.7-50.8h5.6l16.7 50.8 17.3-50.6h7.2l-21.6 61.2h-5.8l-16.7-49.2-16.7 49.2h-5.8l-21.7-61.2z M496.5 299v-.2c0-16.7 12.5-31.4 31.1-31.4s30.9 14.4 30.9 31.2v.2c0 16.7-12.5 31.4-31.1 31.4-18.5 0-30.9-14.6-30.9-31.2zm54.8 0v-.2c0-13.8-10.1-25-23.9-25-13.9 0-23.7 11.1-23.7 24.8v.2c0 13.8 10.1 25 23.9 25 13.8 0 23.7-11 23.7-24.8z M570.2 299v-.2c0-16.7 12.5-31.4 31.1-31.4s30.9 14.4 30.9 31.2v.2c0 16.7-12.5 31.4-31.1 31.4-18.5 0-30.9-14.6-30.9-31.2zm54.8 0v-.2c0-13.8-10.1-25-23.9-25-13.9 0-23.7 11.1-23.7 24.8v.2c0 13.8 10.1 25 23.9 25 13.8 0 23.7-11 23.7-24.8z M646.6 268.4h21.1c19.1 0 32.2 13.1 32.2 30.1v.2c0 17.1-13.1 30.3-32.2 30.3h-21.1v-60.6zm21 54.4c15.4 0 25.2-10.4 25.2-23.9v-.2c0-13.5-9.8-24-25.2-24h-14.3v48.1h14.3z M235.4 197.7h6.7v16h18.3v-16h6.7v38.5h-6.7V220h-18.3v16.2h-6.7v-38.5z M286.3 217.1c0-10.9 8.3-20 20.2-20s20 9 20 19.7v.2c0 10.7-8.3 19.9-20.2 19.9-11.8-.1-20-9.1-20-19.8zm33 0c0-7.5-5.4-13.8-13-13.8-7.7 0-13 6.1-13 13.6v.2c0 7.5 5.4 13.6 13 13.6 7.7-.1 13-6.2 13-13.6z M353 204h-12.2v-6.2h31.1v6.2h-12.2v32.2H353V204z M390 197.7h28.5v6.1h-21.8v9.9h19.2v6.1h-19.2v10.3h22v6.1H390v-38.5z M437.7 197.7h6.7v32.2h20.2v6.1h-26.9v-38.3z M339.8 127.9V88.6H286v39.3h-10.3V38.8H286V79h53.8V38.8h10.3V128h-10.3v-.1z M423.9 51.3l-6.1 7.9c-6.9-7-16.5-11.2-26.4-11.2-20.2-.1-36.4 15.4-36.4 35s16.2 35.1 36.4 35.1c9.8 0 19.4-4 26.4-10.7l6.2 7c-8.8 8.3-20.8 13.8-33.2 13.8-25.8 0-46.1-20-46.1-45.2 0-25 20.7-44.7 46.5-44.7 12.4 0 24.2 5 32.7 13z M464.6 166.6H235.4V0h229.3v166.6zm-222.8-6.4h216.5V6.4H241.8v153.8z" fill="#FFFFFF"></path></svg>